<svg width="420.000000" height="374.000000" viewBox="0 0 420 374" fill="none" xmlns="http://www.w3.org/2000/svg" xmlns:xlink="http://www.w3.org/1999/xlink">
	<desc>
			Created with Pixso.
	</desc>
	<defs>
		<filter id="filter_3_351_dd" x="0.000000" y="27.214294" width="189.079346" height="266.865082" filterUnits="userSpaceOnUse" color-interpolation-filters="sRGB">
			<feFlood flood-opacity="0" result="BackgroundImageFix"/>
			<feColorMatrix in="SourceAlpha" type="matrix" values="0 0 0 0 0 0 0 0 0 0 0 0 0 0 0 0 0 0 127 0" result="hardAlpha"/>
			<feOffset dx="-2" dy="9"/>
			<feGaussianBlur stdDeviation="11.6667"/>
			<feComposite in2="hardAlpha" operator="out" k2="-1" k3="1"/>
			<feColorMatrix type="matrix" values="0 0 0 0 1 0 0 0 0 0.77255 0 0 0 0 0.16078 0 0 0 0.25 0"/>
			<feBlend mode="normal" in2="BackgroundImageFix" result="effect_dropShadow_1"/>
			<feBlend mode="normal" in="SourceGraphic" in2="effect_dropShadow_1" result="shape"/>
		</filter>
		<filter id="filter_3_352_dd" x="152.904785" y="-0.396820" width="267.095215" height="373.690491" filterUnits="userSpaceOnUse" color-interpolation-filters="sRGB">
			<feFlood flood-opacity="0" result="BackgroundImageFix"/>
			<feColorMatrix in="SourceAlpha" type="matrix" values="0 0 0 0 0 0 0 0 0 0 0 0 0 0 0 0 0 0 127 0" result="hardAlpha"/>
			<feOffset dx="-30" dy="30"/>
			<feGaussianBlur stdDeviation="16.6667"/>
			<feComposite in2="hardAlpha" operator="out" k2="-1" k3="1"/>
			<feColorMatrix type="matrix" values="0 0 0 0 0.99608 0 0 0 0 0.44706 0 0 0 0 0.29804 0 0 0 0.2 0"/>
			<feBlend mode="normal" in2="BackgroundImageFix" result="effect_dropShadow_1"/>
			<feBlend mode="normal" in="SourceGraphic" in2="effect_dropShadow_1" result="shape"/>
		</filter>
	</defs>
	<path d="M227.14 152.12C227.14 177.58 206.5 198.22 181.04 198.22C155.59 198.22 134.95 177.58 134.95 152.12C134.95 126.66 155.59 106.03 181.04 106.03C206.5 106.03 227.14 126.66 227.14 152.12Z" fill="#FFE2DA" fill-opacity="1.000000" fill-rule="evenodd"/>
	<g filter="url(#filter_3_351_dd)">
		<path d="M156.07 250.07L156.07 172.68C156.07 106.71 102.75 53.21 37 53.21L37 130.6C37 196.58 90.32 250.07 156.07 250.07Z" fill="#FFC529" fill-opacity="1.000000" fill-rule="nonzero"/>
	</g>
	<g filter="url(#filter_3_352_dd)">
		<path d="M232.9 293.29L232.9 185.67C232.9 93.95 307.71 19.6 400 19.6L400 127.22C400 218.94 325.19 293.29 232.9 293.29Z" fill="#FE724C" fill-opacity="1.000000" fill-rule="nonzero"/>
	</g>
</svg>
